<?xml version="1.0" encoding="UTF-8"?><svg id="uuid-9998d58f-ee46-40f4-8803-cf97c0179200" xmlns="http://www.w3.org/2000/svg" width="1050" height="500" xmlns:xlink="http://www.w3.org/1999/xlink" viewBox="0 0 1050 500"><defs><style>.uuid-fe32b377-1817-487b-800c-7cf6edab6533{fill:url(#uuid-b977149d-8185-47d5-a2f3-aec7aac8a3ac);}</style><linearGradient id="uuid-b977149d-8185-47d5-a2f3-aec7aac8a3ac" x1="251.65683" y1="-78.14931" x2="759.93403" y2="430.12789" gradientTransform="matrix(1, 0, 0, 1, 0, 0)" gradientUnits="userSpaceOnUse"><stop offset="0" stop-color="#be58a1"/><stop offset="1" stop-color="#00bdd3"/></linearGradient></defs><path class="uuid-fe32b377-1817-487b-800c-7cf6edab6533" d="M95.54201,238.1264V80.11148c0-2.86129,2.31953-5.18082,5.18082-5.18082h2.59041c2.86129,0,5.18082,2.31953,5.18082,5.18082V238.1264c0,2.86129-2.31953,5.18082-5.18082,5.18082h-2.59041c-2.86129,0-5.18082-2.31953-5.18082-5.18082Zm87.62954-108.1492c-32.29-.11072-58.58383,26.17448-58.48718,58.46128,.0911,30.43065,25.2208,54.86874,55.65158,54.86874h.68954c2.86129,0,5.18082-2.31953,5.18082-5.18082v-2.59041c0-2.86129-2.31953-5.18082-5.18082-5.18082h-.75052c-23.46052,0-42.80066-18.95405-42.63771-42.414,.17426-25.08867,20.83384-45.40027,46.05153-45.00666,21.2208,.33123,38.13564,17.89728,38.13564,39.12067v56.07122c0,2.86129,2.31953,5.18082,5.18082,5.18082h2.59041c2.86129,0,5.18082-2.31953,5.18082-5.18082v-55.86095c0-28.38486-23.22022-52.19093-51.60492-52.28826Zm475.24113,.00229c-30.30401,.29384-54.503,25.44003-54.503,55.74547v2.53609c0,30.40117,24.64501,55.04618,55.04618,55.04618h1.2952c2.86129,0,5.18082-2.31953,5.18082-5.18082v-2.59041c0-2.86129-2.31953-5.18082-5.18082-5.18082h-1.2952c-23.24795,0-42.09414-18.84619-42.09414-42.09414v-2.59908c0-23.09993,18.34343-42.37594,41.44068-42.72808,23.50891-.35842,42.7476,18.66112,42.7476,42.08915v53.10337c0,2.86129,2.31953,5.18082,5.18082,5.18082h2.59041c2.86129,0,5.18082-2.31953,5.18082-5.18082v-53.10337c0-30.53341-24.98878-55.34026-55.58936-55.04355Zm-235.11611,.00194c-30.91786-.39477-56.15186,24.83924-55.75709,55.75709,.38164,29.88943,25.8657,54.3307,55.75756,54.3307h3.81726c2.86129,0,5.18082-2.31953,5.18082-5.18082v-2.59041c0-2.86129-2.31953-5.18082-5.18082-5.18082h-3.89709c-23.26974,0-42.61427-18.61223-42.72974-41.88168-.116-23.37811,18.92644-42.42133,42.3047-42.30607,23.26999,.11472,41.88305,19.45949,41.88305,42.72976v59.26705c0,13.41228-10.8728,24.28508-24.28508,24.28508h-17.80906c-15.20063,0-28.98091,6.19436-38.95218,16.19005h-3.14196c-19.67134,0-35.61812-15.94677-35.61812-35.61812v-73.89619c0-24.95744-19.92861-45.66607-44.88488-45.90803-25.20047-.24433-45.77942,20.18481-45.77942,45.32998v62.81741c0,2.86129,2.31953,5.18082,5.18082,5.18082h2.59041c2.86129,0,5.18082-2.31953,5.18082-5.18082v-62.27413c0-17.7306,14.02719-32.58126,31.75461-32.91745,18.1396-.34401,33.00561,14.31152,33.00561,32.37417v74.47424c0,24.66643,18.4871,45.0821,42.33035,48.15568-4.61144,8.43498-7.0817,18.20062-6.6673,28.56282,1.12777,28.20016,23.76143,51.18578,51.94247,52.71861,31.73468,1.72612,58.10496-23.5968,58.10496-54.96287v-7.77123c0-2.86129-2.31953-5.18082-5.18082-5.18082h-2.59041c-2.86129,0-5.18082,2.31953-5.18082,5.18082v7.13508c0,23.27027-18.61306,42.61504-41.88305,42.72976-23.37826,.11526-42.4207-18.92797-42.3047-42.30608,.11547-23.26945,19.46-41.88168,42.72974-41.88168h17.17293c20.56549,0,37.23712-16.67163,37.23712-37.23712v-59.18725c0-29.89186-24.44127-55.37592-54.3307-55.75756Zm365.8952,0c-30.91786-.39477-56.15186,24.83924-55.75709,55.75709,.38164,29.88943,25.8657,54.3307,55.75756,54.3307h3.81726c2.86129,0,5.18082-2.31953,5.18082-5.18082v-2.59041c0-2.86129-2.31953-5.18082-5.18082-5.18082h-3.89709c-23.26974,0-42.61427-18.61223-42.72974-41.88168-.116-23.37811,18.92644-42.42133,42.3047-42.30607,23.26999,.11472,41.88305,19.45949,41.88305,42.72976v59.26705c0,13.41228-10.8728,24.28508-24.28508,24.28508h-17.09311c-29.89186,0-55.37592,24.44127-55.75756,54.3307-.39477,30.91786,24.83924,56.15186,55.75709,55.75709,29.88943-.38164,54.3307-25.8657,54.3307-55.75756v-7.05528c0-2.86129-2.31953-5.18082-5.18082-5.18082h-2.59041c-2.86129,0-5.18082,2.31953-5.18082,5.18082v7.13508c0,23.27027-18.61306,42.61504-41.88305,42.72976-23.37826,.11526-42.4207-18.92797-42.3047-42.30608,.11547-23.26945,19.46-41.88168,42.72974-41.88168h17.17293c20.56549,0,37.23712-16.67163,37.23712-37.23712v-59.18725c0-29.89186-24.44127-55.37592-54.3307-55.75756Zm-214.42419,64.75564c0,18.06265-14.86601,32.71818-33.00561,32.37417-17.72741-.33619-31.75461-15.18685-31.75461-32.91745v-59.03612c0-2.86129-2.31953-5.18082-5.18082-5.18082h-2.59041c-2.86129,0-5.18082,2.31953-5.18082,5.18082v59.00131c0,24.95745,19.92862,45.66611,44.8849,45.90807,25.20046,.24432,45.7794-20.18514,45.7794-45.32998v-59.5794c0-2.86129-2.31953-5.18082-5.18082-5.18082h-2.59041c-2.86129,0-5.18082,2.31953-5.18082,5.18082v59.5794Zm294.66397-9.05971c-.35889-23.50897,18.6605-42.74846,42.08914-42.74846,9.75103,0,19.18015,3.41382,26.65414,9.51988l-27.57012,27.56956c-2.02325,2.0232-2.02329,5.3035-.0001,7.32676l1.83177,1.83183c2.02322,2.02329,5.30357,2.02332,7.32683,.00008l33.17735-33.17709c2.02325-2.02323,2.02325-5.30356,.00001-7.3268l-.81163-.81163c-1.08998-1.19054-2.22676-2.32669-3.40877-3.40877l-1.27465-1.27465-.07716,.07716c-9.92305-8.50389-22.66007-13.27837-35.84769-13.27837-30.53341,0-55.34026,24.98878-55.04355,55.58936,.29384,30.30401,25.44003,54.503,55.74547,54.503h26.49737c2.86129,0,5.18082-2.31953,5.18082-5.18082v-2.59041c0-2.86129-2.31953-5.18082-5.18082-5.18082h-26.56035c-23.0996,0-42.37548-18.34291-42.72808-41.43982Z"/><g><path d="M440.18458,401.22758c-1.11543-1.21861-2.45717-2.15235-4.02554-2.80059-1.56932-.64761-3.3257-.97236-5.27042-.97236h-10.657v27.22602h10.657c1.94472,0,3.70775-.32412,5.28973-.97236,1.58135-.64761,2.92309-1.57502,4.02554-2.78097,1.10182-1.20595,1.95073-2.64486,2.54769-4.31737,.59601-1.67251,.89449-3.51973,.89449-5.54231s-.29848-3.86348-.89449-5.52269c-.59696-1.65921-1.45252-3.09876-2.567-4.31737Zm-1.4003,13.84597c-.38901,1.19329-.95305,2.19793-1.69181,3.01456-.73908,.81663-1.64687,1.44588-2.72273,1.88648-1.07618,.44123-2.30144,.6609-3.67546,.6609h-6.26209v-19.1357h6.26209c1.37403,0,2.59264,.2203,3.65615,.6609,1.06288,.44123,1.97004,1.07618,2.72241,1.9061,.75174,.82992,1.32243,1.83457,1.71144,3.01393,.38901,1.18063,.58335,2.50876,.58335,3.98692s-.19434,2.81389-.58335,4.00591Z"/><polygon points="449.32385 424.68065 466.47622 424.68065 466.47622 420.63549 453.52443 420.63549 453.52443 412.74014 464.33716 412.74014 464.33716 408.69498 453.52443 408.69498 453.52443 401.49979 466.47622 401.49979 466.47622 397.45463 449.32385 397.45463 449.32385 424.68065"/><path d="M485.34034,413.98471c-.38901,1.01097-.71946,1.91939-.99198,2.72273-.27221,.80397-.51213,1.54273-.71946,2.21692-.03418,.11082-.06576,.21666-.09923,.3261-.13907-.41615-.28657-.85224-.44519-1.31808-.18168-.53113-.39565-1.12112-.64191-1.76936-.24657-.64824-.52511-1.37434-.83625-2.17831l-6.49536-16.53008h-4.78392l10.8906,27.22602h4.08378l10.96814-27.22602h-4.90072l-6.02849,16.53008Z"/><polygon points="501.01423 424.68065 518.16659 424.68065 518.16659 420.63549 505.2148 420.63549 505.2148 412.74014 516.02753 412.74014 516.02753 408.69498 505.2148 408.69498 505.2148 401.49979 518.16659 401.49979 518.16659 397.45463 501.01423 397.45463 501.01423 424.68065"/><polygon points="529.09612 397.45463 524.89555 397.45463 524.89555 424.68065 541.85357 424.68065 541.85357 420.63549 529.09612 420.63549 529.09612 397.45463"/><path d="M568.36013,401.07185c-1.20563-1.26989-2.61923-2.25617-4.2395-2.95632-1.6206-.69952-3.39027-1.04959-5.30904-1.04959-1.91908,0-3.68876,.35007-5.30904,1.04959-1.62091,.70015-3.03387,1.67947-4.2395,2.9367-1.20563,1.25786-2.13906,2.73602-2.80028,4.43385-.66122,1.69909-.99198,3.55898-.99198,5.58156s.33077,3.8831,.99198,5.58156,1.59464,3.17662,2.80028,4.43385c1.20563,1.25786,2.61859,2.23655,4.2395,2.9367,1.62028,.69952,3.38996,1.04959,5.30904,1.04959,1.91876,0,3.68844-.35007,5.30904-1.04959,1.62028-.70015,3.03387-1.6858,4.2395-2.95632,1.20563-1.26989,2.13938-2.75501,2.80028-4.45347,.66122-1.69783,.99198-3.54505,.99198-5.54231,0-1.99663-.33077-3.84385-.99198-5.54231-.6609-1.69783-1.59464-3.18295-2.80028-4.45347Zm-1.1667,13.94346c-.45421,1.20595-1.08314,2.25617-1.88648,3.15067-.80397,.89449-1.75702,1.58831-2.85883,2.08082-1.10245,.49251-2.3141,.73876-3.63653,.73876s-2.53471-.24625-3.63653-.73876c-1.10245-.49251-2.06151-1.18-2.87814-2.0612-.81695-.8812-1.44588-1.93142-1.88648-3.15067-.44123-1.21861-.66122-2.54104-.66122-3.9673,0-1.45157,.21998-2.78097,.66122-3.98692,.4406-1.20532,1.06953-2.24921,1.88648-3.13104,.81663-.8812,1.77569-1.56805,2.87814-2.0612,1.10182-.49188,2.3141-.73876,3.63653-.73876s2.53408,.24689,3.63653,.73876c1.10182,.49314,2.05487,1.18633,2.85883,2.08082,.80333,.89449,1.43227,1.94472,1.88648,3.15067,.45326,1.20532,.68052,2.52205,.68052,3.94767,0,1.42625-.22726,2.74235-.68052,3.94767Z"/><path d="M592.9416,398.56309c-1.20595-.73876-2.54801-1.10846-4.02554-1.10846h-11.08526v27.22602h4.20089v-10.42373h6.88437c1.47753,0,2.81958-.38236,4.02554-1.14708,1.20532-.76472,2.17135-1.78266,2.89745-3.05318,.72547-1.27052,1.08884-2.68411,1.08884-4.2395,0-1.55603-.36337-2.96898-1.08884-4.2395-.7261-1.27052-1.69213-2.2758-2.89745-3.01456Zm-.81726,9.45137c-.35007,.6609-.8103,1.19266-1.38067,1.59464-.57037,.40262-1.20532,.60266-1.90547,.60266h-6.8065v-8.71197h6.8065c.70015,0,1.33509,.19434,1.90547,.58303,.57037,.38932,1.0306,.90842,1.38067,1.55603,.35007,.64824,.52543,1.37434,.52543,2.17831s-.17535,1.53577-.52543,2.1973Z"/><path d="M615.53332,411.97372l-8.92111-14.51909h-4.12302v27.22602h4.20089v-11.16249c0-2.51509-.05887-4.68707-.17535-6.51467-.05314-.83412-.12898-1.65605-.21733-2.47121l7.82147,12.33089h2.567l7.98998-12.3521c-.09614,.89892-.17429,1.80062-.23075,2.70575-.11648,1.86748-.17472,3.9673-.17472,6.30133v11.16249h4.20026v-27.22602h-3.88943l-9.04788,14.51909Z"/><polygon points="636.09377 424.68065 653.24613 424.68065 653.24613 420.63549 640.29466 420.63549 640.29466 412.74014 651.10707 412.74014 651.10707 408.69498 640.29466 408.69498 640.29466 401.49979 653.24613 401.49979 653.24613 397.45463 636.09377 397.45463 636.09377 424.68065"/><path d="M678.99399,406.40019c0,1.14138,.01266,2.24351,.03925,3.3064,.02532,1.06352,.05824,2.08082,.09686,3.05318,.03925,.97236,.09053,1.89281,.15573,2.76134,.06457,.86917,.1361,1.6858,.21397,2.45052,.02382,.23399,.05112,.45219,.07735,.67534l-15.82942-21.19234h-3.77295v27.22602h4.20089v-11.31822c0-.23359-.00696-.5058-.01962-.81663-.01329-.31146-.03292-.70648-.05824-1.18633-.02659-.47985-.07217-1.10213-.1361-1.86685-.0652-.76472-.14307-1.69846-.23359-2.80059-.06627-.8008-.14291-1.73249-.22924-2.7873l15.84521,20.77592h3.85082v-27.22602h-4.20089v8.94556Z"/><polygon points="688.36749 401.49979 695.99126 401.49979 695.99126 424.68065 700.19151 424.68065 700.19151 401.49979 708.04824 401.49979 708.04824 397.45463 688.36749 397.45463 688.36749 401.49979"/><polygon points="728.31202 397.45463 724.11113 397.45463 724.11113 424.68065 741.06915 424.68065 741.06915 420.63549 728.31202 420.63549 728.31202 397.45463"/><path d="M755.1101,397.45463l-10.54021,27.22602h4.27812l2.5744-6.76789h11.38979l2.56589,6.76789h4.4731l-10.46234-27.22602h-4.27875Zm-2.14923,16.4136l2.07136-5.44546c.15573-.4406,.35007-.99198,.58367-1.65288,.23359-.66153,.47288-1.36738,.71977-2.12007,.24562-.75142,.47922-1.46423,.70015-2.13906,.03786-.11608,.07351-.22402,.10952-.33322l.02659,.08063c.23296,.71344,.49188,1.49715,.77738,2.35303s.53809,1.63326,.75839,2.33341,.3697,1.14138,.44756,1.32243l2.12355,5.60119h-8.31794Z"/><path d="M794.6843,413.28456c-.50517-.98502-1.21228-1.80861-2.11944-2.46951-.59827-.43597-1.27064-.77576-2.00383-1.03689,.89521-.40918,1.64034-.9718,2.2178-1.70546,.81663-1.03693,1.22494-2.29479,1.22494-3.77295,0-1.47753-.30513-2.72843-.91412-3.75333-.60899-1.02363-1.51045-1.79468-2.7031-2.31378-1.19266-.51846-2.65816-.77801-4.3946-.77801h-11.35747v27.22602h11.74616c1.42562,0,2.69677-.17472,3.81157-.52479s2.06753-.86221,2.85883-1.5364c.79067-.67419,1.387-1.51045,1.78899-2.50876s.60329-2.14539,.60329-3.4425c0-1.26989-.25322-2.39798-.75902-3.38363Zm-15.84892-11.78477h6.45643c1.45157,0,2.567,.31083,3.34501,.93311,.77738,.62228,1.1667,1.51678,1.1667,2.68411,0,.70015-.17535,1.32243-.52543,1.86685s-.82992,.97236-1.43891,1.28318c-.60962,.31146-1.30281,.46719-2.08082,.46719h-6.92298v-7.23444Zm11.72653,17.28847c-.40262,.60962-.97236,1.06921-1.71175,1.38067-.73876,.31083-1.64022,.46655-2.7031,.46655h-7.31167v-7.85673h7.11733c1.06288,0,1.98396,.15003,2.76134,.44756,.77801,.29816,1.38131,.73307,1.80861,1.30281,.42794,.57101,.64191,1.25786,.64191,2.0612,0,.85588-.20131,1.58894-.60266,2.19793Z"/></g></svg>