<svg xmlns="http://www.w3.org/2000/svg" viewBox="0 0 295.96429 128"><path d="M25.25,44.74023h2.69971a11.94638,11.94638,0,0,0,.98974-1.16992c.68994-.83984,1.11035-1.29,1.23-1.29.36036,0,.96.41993,1.74024,1.25977a5.1838,5.1838,0,0,1,1.19971,1.56055c0,.2998-.21.45019-.6001.45019H25.25c-1.71,0-2.91016.05957-3.62988.11914L21.16992,44.5A23.50332,23.50332,0,0,0,25.25,44.74023Zm1.28955-3.62988h.24024c.06005-.0293.35986-.38965.92968-1.0498.66016-.78028,1.0503-1.2002,1.17041-1.2002q.49439,0,1.61963,1.16992a4.75936,4.75936,0,0,1,1.08008,1.41016c0,.33008-.1499.48047-.4502.48047H26.53955c-1.71,0-2.90967.05957-3.62988.12012L22.46,40.87012A23.497,23.497,0,0,0,26.53955,41.11035Zm0,7.5h.84033a11.52826,11.52826,0,0,0,.89991-1.0498c.65966-.78028,1.07959-1.2002,1.1997-1.2002.33008,0,.87012.38965,1.58985,1.16992a5.19873,5.19873,0,0,1,1.11035,1.41016.42787.42787,0,0,1-.48.47949H26.53955c-1.71,0-2.90967.06055-3.62988.12012L22.46,48.37012A23.59621,23.59621,0,0,0,26.53955,48.61035Zm-.02978,8.30957h.87011c.41992-.50976.80957-.96,1.19971-1.34961a1.13657,1.13657,0,0,1,.77979-.51074,5.23483,5.23483,0,0,1,1.65039.78027c.98974.71973,1.49951,1.2002,1.49951,1.44043a1.08741,1.08741,0,0,1-.53955.80957,1.04828,1.04828,0,0,0-.39014.80957v2.46c0,.93066.02979,2.16015.12012,3.75,0,.39062-.51026.69042-1.5.87011a8.437,8.437,0,0,1-.96.08985c-.54,0-.81006-.33008-.81006-.96V63.93945H25.84961v1.29c0,.36035-.48.66016-1.43994.87012a7.37983,7.37983,0,0,1-.8999.08984.84466.84466,0,0,1-.96-.96c.06006-1.01953.12012-2.00976.12012-3.02929V59.62012c0-1.44043-.08984-2.85059-.21-4.23047A30.85884,30.85884,0,0,1,26.50977,56.91992Zm.1499-4.22949h.6001a6.4599,6.4599,0,0,0,.8999-1.02051c.66015-.7793,1.08008-1.20019,1.19971-1.20019.33007,0,.87011.39062,1.59033,1.17089.71972.7793,1.10986,1.2295,1.10986,1.40918a.42859.42859,0,0,1-.48.48047H26.65967c-1.71,0-2.90967.05957-3.62988.12012l-.48-1.16992A28.75476,28.75476,0,0,0,26.65967,52.69043Zm1.77,10.43945V57.72949H25.84961v5.40039Zm8.66943-22.13965h6.44971A12.91827,12.91827,0,0,0,44.419,40.001c.60009-.75.99023-1.14063,1.10986-1.14063.30029,0,.78027.39063,1.43994,1.14063.66016.71972,1.02,1.16992,1.02,1.34961a.41984.41984,0,0,1-.48.45019H40.87891l-.65967,3.59961c.8999.03027,1.73974.03027,2.48974.03027.3003-.2705.62989-.54.96-.81054.41992-.38965.72021-.59961.93017-.59961a3.34536,3.34536,0,0,1,1.5.90039c.77979.65918,1.19971,1.0498,1.19971,1.22949,0,.26953-.27.54-.77979.78027-.48.29981-.72021.56934-.75.83985l-.56982,4.46972H45.769c.14991-.24023.33008-.59961.56983-1.08007.2998-.59961.48-.92969.60009-.92969.18018,0,.54.35937,1.02,1.08008a3.566,3.566,0,0,1,.75,1.29q0,.4497-.36035.44921H35.08936c-.6001,0-1.37989.06055-2.33985.12012L32.29932,52a19.2917,19.2917,0,0,0,2.79.24023h.77978l1.05029-5.93945c-1.08007.0293-2.10009.05957-3,.05957l-.45019-1.16992c1.29.05957,2.49023.12012,3.62988.15039l.6001-3.54h-.6001c-1.73974,0-2.93994.05957-3.62988.12012l-.48-1.16992A24.017,24.017,0,0,0,37.09912,40.99023Zm1.02,15.35938h4.14014a13.01891,13.01891,0,0,1,1.25976-1.29,1.29388,1.29388,0,0,1,.83985-.47949,5.98463,5.98463,0,0,1,1.77.83984c1.08007.71973,1.62011,1.23047,1.62011,1.5,0,.29981-.24023.57031-.66015.87012a1.09692,1.09692,0,0,0-.50977.89941v2.66993c0,.96.02979,2.2207.11963,3.87011,0,.36035-.53955.66016-1.55957.87012a9.41568,9.41568,0,0,1-1.02.08984c-.54,0-.81006-.33007-.81006-.96v-1.29H37.33936v1.53028c0,.35937-.51026.66015-1.5.87011-.4502.0293-.77979.05957-.96.05957a.83532.83532,0,0,1-.96-.92968c.06006-1.08008.12012-2.09961.12012-3.15039V59.13965a40.78921,40.78921,0,0,0-.24023-4.31934A28.87277,28.87277,0,0,1,38.11914,56.34961Zm5.18994,6.78027V57.16016H37.33936v5.96972Zm-.24023-16.85937H40.06934L39.019,52.24023h3.3003Z"/><path d="M55.60986,45.19043H73.06934A15.681,15.681,0,0,0,74.209,43.87012c.80957-.96,1.29-1.46973,1.44043-1.46973.38965,0,1.04981.48047,1.94922,1.41016.87012.96,1.32032,1.53027,1.32032,1.74023,0,.33008-.21.47949-.57032.47949H55.60986c-1.71,0-2.91015.06055-3.62988.12012l-.48-1.16992A28.60928,28.60928,0,0,0,55.60986,45.19043Zm3.27,4.10937H69.919A15.75566,15.75566,0,0,0,70.999,47.98047c.78028-.99024,1.23047-1.5,1.37989-1.5.39062,0,1.0498.47949,1.95019,1.43945.87012.96,1.32031,1.53028,1.32031,1.74024,0,.2998-.21.45019-.60058.45019H58.87988c-1.71,0-2.91015.05957-3.62988.12012l-.4502-1.16992A23.62281,23.62281,0,0,0,58.87988,49.2998Zm0,4.11036H69.919A16.10073,16.10073,0,0,0,70.999,52.08984c.78028-.98925,1.23047-1.5,1.37989-1.5.39062,0,1.0498.48047,1.95019,1.41016.87012.96,1.32031,1.56055,1.32031,1.77051,0,.2998-.21.44922-.60058.44922H58.87988c-1.71,0-2.91015.06054-3.62988.12011l-.4502-1.16992A23.60138,23.60138,0,0,0,58.87988,53.41016Zm.59961-12.29981h10.2002a10.79452,10.79452,0,0,0,.92969-1.10937c.66015-.81055,1.0498-1.23047,1.16992-1.23047.35937,0,.89941.41992,1.67968,1.20019a5.72507,5.72507,0,0,1,1.13965,1.46973.42823.42823,0,0,1-.47949.48047H59.47949c-1.73974,0-2.93994.05957-3.62988.12012l-.48-1.1709A24.11665,24.11665,0,0,0,59.47949,41.11035Zm.21,16.40918H69.919c.41992-.50976.83984-.96,1.25976-1.37988a1.23392,1.23392,0,0,1,.84082-.50977,5.99577,5.99577,0,0,1,1.76953.83985c1.08008.75,1.62012,1.25976,1.62012,1.5,0,.2998-.21.57031-.60059.87011a1.19465,1.19465,0,0,0-.44921.90039v1.5293c0,.96.02929,2.28027.11914,3.96,0,.36035-.53907.66016-1.61914.87012-.51075.05957-.87012.08984-1.08008.08984-.54,0-.81055-.33007-.81055-.96V64.05957H58.87988v1.29c0,.36035-.51025.66016-1.47021.87012a8.45438,8.45438,0,0,1-.98975.08984.83546.83546,0,0,1-.93017-.96c.06-1.04981.12011-2.07031.12011-3.14941V60.30957a40.80382,40.80382,0,0,0-.24023-4.31934A28.87277,28.87277,0,0,1,59.68945,57.51953ZM70.96875,63.25V58.33008H58.87988V63.25Z"/><path d="M91.63965,40.06055c.71973.41992,1.10937.71972,1.10937.92968,0,.18067-.21.27051-.59961.30079-.47949,0-.75.05957-.80957.14941-.51074.12012-1.0498.21-1.58984.2998a19.64419,19.64419,0,0,1-2.04.21l.05957,2.31054h.41992s.21-.21.60059-.62988c.54-.60059.86914-.90039,1.0498-.90039a5.35634,5.35634,0,0,1,1.37989,1.08008q.71923.62988.71972.80957c0,.33008-.12011.48047-.36035.48047H87.7998l.05958,3.02929h.45019s.21-.21.59961-.62988c.54-.59961.87012-.89941,1.05078-.89941a5.61533,5.61533,0,0,1,1.37988,1.0498c.4795.4502.71973.71973.71973.83984q0,.44971-.36035.4502H87.88965l.05957,2.46h14.33984l.15039-2.5498c-1.29,0-2.33984.02929-3.12011.08984l-.48047-1.16992a21.58237,21.58237,0,0,0,3.66015.24023l.15039-2.82031c-1.37988,0-2.49023.05957-3.33007.12012l-.48047-1.16993a23.8901,23.8901,0,0,0,3.83984.24024l.15039-2.46c-1.32031,0-2.46.05957-3.38965.12012l-.48047-1.1709a27.78294,27.78294,0,0,0,3.54.24023q.49512-.49512.99024-.98926c.41992-.42089.75-.66015.98926-.66015a3.84928,3.84928,0,0,1,1.62011.92968c.87012.69043,1.32032,1.11036,1.32032,1.29,0,.29981-.29981.59961-.9004.83985-.54.2998-.83984.62988-.86914.92969l-.30078,6.96c.30078-.24024.51075-.38965.66016-.38965.24023,0,.81055.41992,1.77051,1.19922.83984.69043,1.25976,1.16992,1.25976,1.4707,0,.26953-.24023.41992-.69043.47949a2.11612,2.11612,0,0,0-.92968.12012,24.34243,24.34243,0,0,1-3.66016,1.86035l-.4502-.21a22.14536,22.14536,0,0,0,1.29-2.7002H84.53027c-.06054.66016-.09082,1.16993-.15039,1.46973A2.485,2.485,0,0,1,83.75,55.15039a.91194.91194,0,0,1-.60059.23926,2.04655,2.04655,0,0,1-1.46972-.50977,1.43253,1.43253,0,0,1-.50977-1.22949c0-.24023.24024-.51074.75-.83984a4.2093,4.2093,0,0,0,1.29-1.08008,4.59668,4.59668,0,0,0,.75-1.71l.59961.08984v1.29H85.25L85.00977,44.5a22.337,22.337,0,0,0-.4502-4.34961l2.85059,1.02051q.53906-.36036.98925-.7207a4.81051,4.81051,0,0,0,1.32032-1.46973C90.43945,39.40039,91.06934,39.76074,91.63965,40.06055ZM90.5293,54.58008H97.669c.30078-.27051.54-.50977.75-.69043a2.29592,2.29592,0,0,1,1.26074-.71973c.3291,0,.959.41992,1.85937,1.2002.92969.78027,1.41016,1.32031,1.41016,1.62011,0,.23926-.39063.38965-1.16992.41993a3.4593,3.4593,0,0,0-1.29.26953c-1.08008.48047-2.00977.90039-2.79,1.20019a.59848.59848,0,0,1,.21.33008c0,.29981-.26953.54-.75.71973a1.14472,1.14472,0,0,0-.71973.45019h6.50977a10.80562,10.80562,0,0,0,.99023-1.20019c.68946-.89942,1.10938-1.37989,1.2295-1.37989.36035,0,.96.4502,1.7998,1.32032q1.25976,1.34912,1.25977,1.62011c0,.29981-.21.44922-.59961.44922h-11.25v2.94043a2.82041,2.82041,0,0,1-1.13965,2.54981,4.96183,4.96183,0,0,1-2.60938.83984q-.45117,0-.54-.80957c-.18066-.90039-1.23046-1.80078-3.21-2.70019L89,62.43945a21.19809,21.19809,0,0,0,3.50977.4502q.71923,0,.71972-.4502v-2.25H85.60938c-1.71,0-2.90918.06055-3.62989.12012L81.5,59.13965a24.11026,24.11026,0,0,0,4.10938.24023h7.62011c-.03027-.59961-.12011-1.44043-.24023-2.58008,1.56054.24024,2.61035.4502,3.08984.57032h.03028a23.91448,23.91448,0,0,0,1.67968-1.98047H90.5293a27.75949,27.75949,0,0,0-3.62989.24023l-.47949-1.41015A21.14522,21.14522,0,0,0,90.5293,54.58008Zm7.16992-8.79c.69043.36035,1.0498.62988,1.0498.81055,0,.24023-.21.35937-.56933.35937-.4502,0-.69043.09082-.72071.24024a3.556,3.556,0,0,1-.54.45019,5.57676,5.57676,0,0,1,1.05078.83984,1.6357,1.6357,0,0,1,.53906,1.16993,1.4824,1.4824,0,0,1-.41992,1.0205,1.01377,1.01377,0,0,1-.86914.50977c-.30078,0-.87012-.57031-1.74024-1.74023a5.17267,5.17267,0,0,0-.36035-.41993,18.234,18.234,0,0,1-3.98926,1.79981l-.12011-.36035a18.14005,18.14005,0,0,0,2.87988-2.54981l.03027-.0293c-.60058-.45019-1.20019-.87011-1.86035-1.29l.24023-.4502a19.16193,19.16193,0,0,1,2.51954.62988,9.2323,9.2323,0,0,0,1.11035-1.91992C96.58887,45.2207,97.15918,45.55078,97.69922,45.79Zm.12012-5.96973c.66015.36035,1.01953.62989,1.01953.81055q0,.31494-.54.35937c-.44922,0-.68945.09082-.75.24024a2.67619,2.67619,0,0,1-.26953.2998,5.38469,5.38469,0,0,1,.71972.69043,1.91967,1.91967,0,0,1,.50977,1.2295,1.47884,1.47884,0,0,1-.41992,1.0205,1.01377,1.01377,0,0,1-.86914.50977c-.27051,0-.81055-.59961-1.59082-1.79981a16.062,16.062,0,0,1-3.32911,1.91993l-.12011-.36036a17.387,17.387,0,0,0,2.25-2.66992c.02929-.05957.05957-.08984.08984-.14941a15.422,15.422,0,0,0-2.00976-1.65039l.23925-.4502q1.53077.36036,2.61036.72071a11.158,11.158,0,0,0,.69042-1.68067A17.65661,17.65661,0,0,0,97.81934,39.82031Z"/><path d="M120.37988,58.54c.87012.47949,1.31934.83984,1.31934,1.08008,0,.26953-.21.41992-.62988.44922-.54,0-.83985.09082-.89942.24023a20.87971,20.87971,0,0,1-2.82031,2.10059,24.9264,24.9264,0,0,1-5.37012,2.249l-.23926-.47949A22.51,22.51,0,0,0,115.46,61.05957a12.2651,12.2651,0,0,0,2.60938-3.7793C118.93945,57.75977,119.71973,58.17969,120.37988,58.54Zm5.33985-15.56934a18.29719,18.29719,0,0,1-1.5,2.16016A18.04721,18.04721,0,0,1,121.46,47.62012a2.19812,2.19812,0,0,1,1.28906,1.7998,2.32823,2.32823,0,0,1-.71972,1.58985,1.60915,1.60915,0,0,1-1.25977.51074c-.66015,0-1.20019-.4502-1.67969-1.35059a10.62618,10.62618,0,0,0-3.24023-3.68945l.24023-.4502a34.77626,34.77626,0,0,1,4.16993,1.04981,18.92088,18.92088,0,0,0,.80957-1.76953,20.95516,20.95516,0,0,0,.75-2.16016c-2.39942.06055-5.25.06055-8.54981.06055l-.12012-.69043a85.36161,85.36161,0,0,0,9.71973-1.13965,47.03009,47.03009,0,0,0,9.26953-2.40039c.93067.60058,1.77051,1.16992,2.55078,1.71.7793.60059,1.19922,1.08008,1.19922,1.46973-.05957.18066-.35937.24023-.83984.24023l-1.5-.24023Q129.31982,42.79,125.71973,42.9707Zm7.64941,1.58985c.89941.36035,1.34961.75,1.34961,1.10937,0,.21094-.24023.33008-.66016.36035-.44921.06055-.68945.15039-.75.24024a67.81558,67.81558,0,0,1-11.48925,7.16992q5.89452-.13623,10.43945-.54a18.78549,18.78549,0,0,0-1.88965-2.31055l.24024-.47949a16.64444,16.64444,0,0,1,5.27929,2.25,3.62088,3.62088,0,0,1,1.29,2.69922,2.2166,2.2166,0,0,1-.71973,1.56055,1.6563,1.6563,0,0,1-1.29.54c-.62989,0-1.16993-.57032-1.62012-1.74024a11.57145,11.57145,0,0,0-.75-1.64941c-1.91992.56933-3.7793,1.0498-5.5791,1.40918V65.34961c0,.36035-.54.66016-1.59082.87012a8.4395,8.4395,0,0,1-.98926.08984.836.836,0,0,1-.93067-.96,48.22588,48.22588,0,0,0,.21094-4.91992V55.83984c-2.10058.36036-4.11035.62989-6.08984.78028-1.56055.08984-2.33985.24023-2.33985.41992a5.19284,5.19284,0,0,0-.24023.62988c-.12012.36035-.33008.54-.57031.54s-.50977-.54-.75-1.67969c-.12012-.57031-.35938-1.56054-.66016-3,2.33985,0,4.53027,0,6.62988-.06054a40.34646,40.34646,0,0,0,10.58985-9.89942Q131.97461,44.06543,133.36914,44.56055Zm1.46973,14.66894c2.09961.90039,3.15039,1.86035,3.15039,2.85059a1.98408,1.98408,0,0,1-.51074,1.46972,1.95037,1.95037,0,0,1-1.34961.75,2.02064,2.02064,0,0,1-1.5-1.0205,26.52044,26.52044,0,0,0-2.66993-2.999,26.96348,26.96348,0,0,0-3.33007-2.43066l.33007-.44922A32.0652,32.0652,0,0,1,134.83887,59.22949Z"/><path d="M20.4502,90.39941v-.585c1.50781-.06738,1.93554-.24707,1.93554-1.8457V77.52539c0-1.59766-.42773-1.77734-1.93554-1.84473v-.58593h7.65234c4.81641,0,8.73242,2.5664,8.73242,7.65234,0,5.08691-3.916,7.65234-8.73242,7.65234Zm4.99658-2.29589c0,1.03613.42724,1.3955,1.80029,1.3955,4.18652,0,6.437-2.83593,6.437-6.752s-2.25049-6.75195-6.437-6.75195c-1.373,0-1.80029.36035-1.80029,1.3955Z"/><path d="M40.65576,84.36816c0,2.74512,1.03516,4.32129,3.03858,4.32129a3.72136,3.72136,0,0,0,3.106-1.80078l.42725.38281c-.76514,1.59766-2.00293,3.39844-4.56885,3.39844-2.90332,0-4.70361-2.38574-4.70361-5.19922,0-3.5332,1.98047-5.91894,4.68115-5.91894,2.74609,0,4.23145,2.16015,4.3667,4.8164Zm3.646-.90039c0-1.2832-.31494-2.88086-1.82276-2.88086-1.55322,0-1.82324,1.59766-1.82324,2.88086Z"/><path d="M52.13086,93.28027c0,1.19336.15771,1.32813,1.82324,1.39551v.585h-5.897v-.585c1.21533-.06738,1.373-.20215,1.373-1.39551V82.25195c0-1.08007-.27-1.30468-1.373-1.30468v-.58594c.67529-.11231,3.78125-.80957,3.9165-.80957.11231,0,.15723.1123.15723.22461v1.418a4.88058,4.88058,0,0,1,3.26367-1.64258c2.13818,0,3.89356,2.13769,3.89356,4.92871,0,3.30859-2.16065,6.18945-4.72657,6.18945a3.62243,3.62243,0,0,1-2.43066-.85547Zm0-7.15722c0,2.70117.72021,3.64648,2.11572,3.64648,1.35059,0,2.34082-1.03515,2.34082-4.27637,0-2.92578-1.17041-4.23144-2.58838-4.23144a2.68467,2.68467,0,0,0-1.86816.96777Z"/><path d="M69.72754,88.68945c0,.292.1123.49512.36035.49512a1.32343,1.32343,0,0,0,.67481-.36035l.36035.40527a3.07048,3.07048,0,0,1-2.61035,1.44043c-1.30567,0-1.48536-.81054-1.48536-1.57519a5.42707,5.42707,0,0,1-3.64648,1.57519c-1.5752,0-2.83594-.67578-2.83594-2.74609,0-3.17383,4.4336-3.69141,6.48242-4.32129,0-2.67774-.49511-3.15039-1.89062-3.15039-1.19336,0-1.39551.54-1.39551,1.53027a1.1931,1.1931,0,0,1-2.38574,0c0-1.666,2.11523-2.43066,4.14062-2.43066,2.251,0,4.23145.87695,4.23145,3.39844Zm-2.7002-4.09668c-1.80078.49512-3.78125,1.1709-3.78125,2.83594a1.52933,1.52933,0,0,0,1.59766,1.62012,3.34442,3.34442,0,0,0,2.18359-1.125Z"/><path d="M71.70508,90.39941v-.585c.90039-.13476,1.26074-.36035,1.26074-1.30566V82.36523c0-1.10351-.27051-1.32812-1.26074-1.32812v-.585c1.16992-.20313,3.623-.90039,3.84863-.90039.11231,0,.11231.15722.11231.33691V81.4873h.04492a2.95308,2.95308,0,0,1,2.498-1.93554,1.45008,1.45008,0,0,1,1.50879,1.50781,1.19681,1.19681,0,0,1-1.19336,1.23731,1.52833,1.52833,0,0,1-1.10253-.4502,1.07008,1.07008,0,0,0-.585-.22461c-.42773,0-.833.38281-1.17089.90039V88.419c0,1.10253.5625,1.373,1.62109,1.3955v.585Z"/><path d="M86.89355,80.94727H84.418v6.61621c0,.85547.22558,1.30566.81055,1.30566.5625,0,.94531-.38281,1.57519-.99023l.4502.45019c-.833,1.16992-1.62012,2.34082-3.28614,2.34082-1.62011,0-2.25-.94531-2.25-2.63379V80.94727H80.36719v-.76563c1.64258-.24805,2.90332-1.53027,3.33105-3.916H84.418v3.55567h2.47558Z"/><path d="M94.251,90.39941v-.585c1.14746-.06738,1.30566-.20215,1.30566-1.3955V82.88281c0-1.44043-.585-1.80078-1.35059-1.80078a3.15949,3.15949,0,0,0-2.29589.85547v6.459c0,1.21582.1582,1.35059,1.30566,1.418v.585H87.81445v-.585c1.23731-.06738,1.39551-.20215,1.39551-1.418V82.31934c0-1.10254-.27051-1.32715-1.39551-1.32715v-.58594c.877-.13477,3.80371-.85449,3.93848-.85449.1123,0,.15723.15722.15723.26953v1.08008a5.51987,5.51987,0,0,1,3.26367-1.34961,3.48334,3.48334,0,0,1,2.791,1.57519c1.16993-.92285,1.98047-1.57519,3.376-1.57519,2.27344,0,3.26367,1.125,3.26367,3.51074V88.419c0,1.19335.15723,1.32812,1.30469,1.3955v.585h-5.31152v-.585c1.14843-.06738,1.30566-.20215,1.30566-1.3955V82.88281c0-1.44043-.585-1.80078-1.35059-1.80078a3.3223,3.3223,0,0,0-2.29589.85547v6.459c0,1.21582.1582,1.35059,1.30566,1.418v.585Z"/><path d="M109.39258,84.36816c0,2.74512,1.03515,4.32129,3.03808,4.32129a3.71867,3.71867,0,0,0,3.10547-1.80078l.42774.38281c-.76465,1.59766-2.00293,3.39844-4.56836,3.39844-2.90332,0-4.7041-2.38574-4.7041-5.19922,0-3.5332,1.98047-5.91894,4.68164-5.91894,2.74511,0,4.23047,2.16015,4.36621,4.8164Zm3.64551-.90039c0-1.2832-.31543-2.88086-1.82325-2.88086-1.55273,0-1.82226,1.59766-1.82226,2.88086Z"/><path d="M123.07227,90.39941v-.585c1.14843-.06738,1.30566-.20215,1.30566-1.3955V82.88281c0-1.44043-.585-1.80078-1.35059-1.80078a4.18376,4.18376,0,0,0-2.43066.90039V88.419c0,1.19335.15723,1.32812,1.30566,1.3955v.585h-5.31152v-.585c1.14746-.06738,1.30469-.20215,1.30469-1.3955V82.27441c0-1.10253-.26953-1.32714-1.30469-1.32714v-.58594c.60742-.11231,3.71289-.80957,3.84863-.80957.11231,0,.15723.1123.15723.22461v1.1709a5.748,5.748,0,0,1,3.21875-1.39551c2.27344,0,3.26367,1.125,3.26367,3.51074V88.419c0,1.19335.15723,1.32812,1.30469,1.3955v.585Z"/><path d="M135.627,80.94727h-2.47558v6.61621c0,.85547.22558,1.30566.81054,1.30566.5625,0,.94532-.38281,1.5752-.99023l.45019.45019c-.833,1.16992-1.62011,2.34082-3.28613,2.34082-1.62012,0-2.25-.94531-2.25-2.63379V80.94727h-1.35058v-.76563c1.64257-.24805,2.90332-1.53027,3.331-3.916h.71973v3.55567H135.627Z"/><path d="M147.48438,90.66992c-3.01661,0-5.08692-2.34082-5.08692-5.55957,0-3.21777,2.07031-5.55859,5.08692-5.55859,3.01562,0,5.08593,2.34082,5.08593,5.55859C152.57031,88.3291,150.5,90.66992,147.48438,90.66992Zm0-10.21777c-1.59864,0-2.251,1.39453-2.251,4.6582s.65234,4.65918,2.251,4.65918c1.59765,0,2.25-1.39551,2.25-4.65918S149.082,80.45215,147.48438,80.45215Z"/><path d="M153.46777,90.39941v-.585c1.55274-.15722,1.79981-.36035,1.79981-1.91308v-6.9541h-1.79981v-1.126h1.79981c0-2.92578.90039-5.35645,4.2539-5.35645,1.23829,0,2.54395.49512,2.54395,1.7334a.99615.99615,0,0,1-1.08105,1.0127c-.71973,0-.877-.31543-1.32715-1.10352-.18067-.33691-.40528-.74219-.92285-.74219-.4502,0-.76563.585-.76563,1.84571v2.61035h2.16113v1.126h-2.16113v7.15625c0,1.50878.49512,1.62109,1.93555,1.71093v.585Z"/><path d="M166.6748,90.39941v-.585c1.4629-.06738,1.89063-.24707,1.89063-1.8457V77.52539c0-1.59766-.42773-1.77734-1.89063-1.84473v-.58593h7.06739v.58593c-1.68848.06739-2.11621.24707-2.11621,1.84473V88.26172c0,.92285.2705,1.2373,1.98047,1.2373,2.74609,0,4.36621-.49511,5.67187-3.19531h.585l-1.03516,4.0957Z"/><path d="M180.39941,90.39941v-.585c1.16993-.08984,1.37305-.49511,1.37305-1.44043v-5.627c0-1.50781-.40527-1.75488-1.37305-1.75488v-.58594a34.59358,34.59358,0,0,0,3.8711-.85449c.20215,0,.20215.15722.20215.40527v8.417c0,.94532.40527,1.44043,1.32812,1.44043v.585Zm1.14747-14.08886a1.57568,1.57568,0,0,1,3.15136,0,1.57568,1.57568,0,0,1-3.15136,0Z"/><path d="M193.06836,90.39941v-.585c1.14844-.06738,1.30566-.20215,1.30566-1.3955V82.88281c0-1.44043-.585-1.80078-1.35058-1.80078a4.1838,4.1838,0,0,0-2.43067.90039V88.419c0,1.19335.15723,1.32812,1.30567,1.3955v.585h-5.31153v-.585c1.14747-.06738,1.30469-.20215,1.30469-1.3955V82.27441c0-1.10253-.26953-1.32714-1.30469-1.32714v-.58594c.60743-.11231,3.71289-.80957,3.84864-.80957.1123,0,.15722.1123.15722.22461v1.1709a5.74809,5.74809,0,0,1,3.21875-1.39551c2.27344,0,3.26368,1.125,3.26368,3.51074V88.419c0,1.19335.15722,1.32812,1.30468,1.3955v.585Z"/><path d="M209.71973,81.4873h-1.59766a3.48454,3.48454,0,0,1,.60742,1.86817c0,2.33984-2.34082,3.21777-4.32129,3.21777a6.00442,6.00442,0,0,1-1.57519-.17969c-.18067.08985-.76563.62989-.76563,1.05762,0,.51758.33789.72071,1.373.78809l3.26367.20215c1.77735.1123,2.835,1.01269,2.835,2.36328,0,2.92578-2.88086,4.45605-5.51367,4.45605-2.76855,0-4.52344-.94531-4.52344-2.43066a3.01408,3.01408,0,0,1,1.75489-2.65528,1.70414,1.70414,0,0,1-1.16993-1.55273,4.15364,4.15364,0,0,1,1.665-2.499,3.23024,3.23024,0,0,1-2.07031-2.90332c0-1.82227,1.26074-3.668,4.5459-3.668a7.32153,7.32153,0,0,1,1.93555.26953,5.46447,5.46447,0,0,0,1.081.22559h2.47559Zm-7.69727,9.04786a2.2791,2.2791,0,0,0-.54,1.37207c0,1.30566,1.44043,1.91308,3.15039,1.91308,1.50781,0,3.64649-.54,3.64649-1.91308,0-.69727-.4502-.92285-1.84571-1.03516Zm.36035-7.47266c0,1.80078.54,2.61035,1.82227,2.61035,1.2832,0,1.82324-.80957,1.82324-2.61035s-.54-2.61035-1.82324-2.61035C202.92285,80.45215,202.38281,81.26172,202.38281,83.0625Z"/><path d="M214.2627,79.82129v7.51758c0,1.44043.585,1.80078,1.35058,1.80078a4.18638,4.18638,0,0,0,2.43067-.90039v-6.4375c0-1.19238-.15821-1.32715-1.30567-1.39551v-.585h4.00586v8.125c0,1.10254.27051,1.32812,1.30566,1.32812v.585c-.60742.1123-3.71386.81054-3.84863.81054-.1123,0-.15722-.1123-.15722-.22558V89.27441a5.74809,5.74809,0,0,1-3.21875,1.39551c-2.27344,0-3.26368-1.126-3.26368-3.51074V81.80176c0-1.19238-.15722-1.32715-1.30468-1.39551v-.585Z"/><path d="M222.92383,90.39941v-.585c1.16992-.08984,1.373-.49511,1.373-1.44043v-5.627c0-1.50781-.40528-1.75488-1.373-1.75488v-.58594a34.5938,34.5938,0,0,0,3.87109-.85449c.20215,0,.20215.15722.20215.40527v8.417c0,.94532.40527,1.44043,1.32813,1.44043v.585Zm1.14746-14.08886a1.57569,1.57569,0,0,1,3.15137,0,1.57569,1.57569,0,0,1-3.15137,0Z"/><path d="M229.4707,86.79883h.58594c.4502,1.39551,1.46289,2.9707,3.30859,2.9707.832,0,1.55274-.40527,1.55274-1.35058,0-.99024-.67578-1.32813-1.71094-1.89063l-1.665-.92285a3.09061,3.09061,0,0,1-1.93554-3.12793A3.05433,3.05433,0,0,1,232.96,79.55176c1.62012,0,1.86816.585,2.45313.585.38281,0,.45019-.22559.54-.54h.585v3.60059h-.71973c-.4502-1.44043-1.35059-2.74512-3.0166-2.74512a1.243,1.243,0,0,0-1.34961,1.39453c0,.63086.24707.99121,1.16992,1.46289l1.89063.94531c1.50781.74317,2.47558,1.46387,2.47558,3.24121,0,2.07129-1.48535,3.17383-3.5332,3.17383a6.71418,6.71418,0,0,1-1.77832-.20312,6.96352,6.96352,0,0,0-1.21485-.38184c-.22558,0-.36035.24707-.40527.585h-.58594Z"/><path d="M244.38965,80.94727h-2.47559v6.61621c0,.85547.22559,1.30566.81055,1.30566.5625,0,.94531-.38281,1.57519-.99023l.4502.45019c-.833,1.16992-1.62012,2.34082-3.28613,2.34082-1.62012,0-2.25-.94531-2.25-2.63379V80.94727h-1.35059v-.76563c1.64258-.24805,2.90332-1.53027,3.33106-3.916h.71972v3.55567h2.47559Z"/><path d="M245.42285,90.39941v-.585c1.16992-.08984,1.373-.49511,1.373-1.44043v-5.627c0-1.50781-.40528-1.75488-1.373-1.75488v-.58594a34.59412,34.59412,0,0,0,3.8711-.85449c.20214,0,.20214.15722.20214.40527v8.417c0,.94532.40528,1.44043,1.32813,1.44043v.585Zm1.14746-14.08886a1.57569,1.57569,0,0,1,3.15137,0,1.57569,1.57569,0,0,1-3.15137,0Z"/><path d="M260.97266,87.42871c-.76465,1.44043-2.00293,3.24121-4.56836,3.24121-2.90332,0-4.7041-2.38574-4.7041-5.19922,0-3.21875,2.20605-5.91894,5.10937-5.91894,2.07031,0,3.57813,1.05762,3.57813,2.29492a1.21406,1.21406,0,0,1-1.23829,1.35059c-.80957,0-1.125-.33692-1.53027-1.35059-.38281-.94531-.85547-1.39453-1.57519-1.39453-.99024,0-2.00293,1.21484-2.00293,3.51074,0,2.43066,1.44043,4.72656,3.30859,4.72656a3.621,3.621,0,0,0,3.26367-1.64355Z"/><path d="M261.959,86.79883h.58594c.4502,1.39551,1.46289,2.9707,3.3086,2.9707.832,0,1.55273-.40527,1.55273-1.35058,0-.99024-.67578-1.32813-1.71094-1.89063l-1.665-.92285a3.09061,3.09061,0,0,1-1.93554-3.12793,3.05433,3.05433,0,0,1,3.35351-2.92578c1.62012,0,1.86817.585,2.45313.585.38281,0,.45019-.22559.54-.54h.585v3.60059h-.71973c-.45019-1.44043-1.35059-2.74512-3.0166-2.74512a1.243,1.243,0,0,0-1.34961,1.39453c0,.63086.24707.99121,1.16992,1.46289l1.89063.94531c1.50781.74317,2.47558,1.46387,2.47558,3.24121,0,2.07129-1.48535,3.17383-3.5332,3.17383a6.71418,6.71418,0,0,1-1.77832-.20312,6.96374,6.96374,0,0,0-1.21484-.38184c-.22559,0-.36036.24707-.40528.585H261.959Z"/></svg>